<svg width="231" height="35" viewBox="0 0 231 35" fill="none" xmlns="http://www.w3.org/2000/svg">
<path d="M21.0293 12.9043C21.0293 15.7988 20.502 18.2188 19.4473 20.1641C18.3926 22.0977 16.8633 23.5566 14.8594 24.541C12.8672 25.5137 10.4473 26 7.59961 26H0.621094V0.300781H8.37305C10.9863 0.300781 13.2363 0.78125 15.123 1.74219C17.0098 2.69141 18.4629 4.10352 19.4824 5.97852C20.5137 7.8418 21.0293 10.1504 21.0293 12.9043ZM17.8828 13.0098C17.8828 10.7012 17.4961 8.79688 16.7227 7.29688C15.9609 5.79688 14.8359 4.68359 13.3477 3.95703C11.8711 3.21875 10.0605 2.84961 7.91602 2.84961H3.60938V23.4336H7.24805C10.7871 23.4336 13.4414 22.5605 15.2109 20.8145C16.9922 19.0684 17.8828 16.4668 17.8828 13.0098ZM67.4355 6.38281C69.5566 6.38281 71.1562 6.93945 72.2344 8.05273C73.3125 9.1543 73.8516 10.9297 73.8516 13.3789V26H70.9688V13.5195C70.9688 11.9609 70.6289 10.7949 69.9492 10.0215C69.2812 9.23633 68.2852 8.84375 66.9609 8.84375C65.0977 8.84375 63.7441 9.38281 62.9004 10.4609C62.0566 11.5391 61.6348 13.127 61.6348 15.2246V26H58.7344V13.5195C58.7344 12.4766 58.582 11.6094 58.2773 10.918C57.9844 10.2266 57.5391 9.71094 56.9414 9.37109C56.3555 9.01953 55.6113 8.84375 54.709 8.84375C53.4316 8.84375 52.4062 9.10742 51.6328 9.63477C50.8594 10.1621 50.2969 10.9473 49.9453 11.9902C49.6055 13.0215 49.4355 14.293 49.4355 15.8047V26H46.5176V6.73438H48.873L49.3125 9.45898H49.4707C49.8574 8.79102 50.3438 8.22852 50.9297 7.77148C51.5156 7.31445 52.1719 6.96875 52.8984 6.73438C53.625 6.5 54.3984 6.38281 55.2188 6.38281C56.6836 6.38281 57.9082 6.6582 58.8926 7.20898C59.8887 7.74805 60.6094 8.57422 61.0547 9.6875H61.2129C61.8457 8.57422 62.7129 7.74805 63.8145 7.20898C64.916 6.6582 66.123 6.38281 67.4355 6.38281ZM114.281 26H111.293V0.300781H125.602V2.9375H114.281V12.3594H124.916V14.9785H114.281V26ZM196.16 16.332C196.16 17.9141 195.955 19.3262 195.545 20.5684C195.135 21.8105 194.543 22.8594 193.77 23.7148C192.996 24.5703 192.059 25.2266 190.957 25.6836C189.867 26.1289 188.631 26.3516 187.248 26.3516C185.959 26.3516 184.775 26.1289 183.697 25.6836C182.631 25.2266 181.705 24.5703 180.92 23.7148C180.146 22.8594 179.543 21.8105 179.109 20.5684C178.688 19.3262 178.477 17.9141 178.477 16.332C178.477 14.2227 178.834 12.4297 179.549 10.9531C180.264 9.46484 181.283 8.33398 182.607 7.56055C183.943 6.77539 185.531 6.38281 187.371 6.38281C189.129 6.38281 190.664 6.77539 191.977 7.56055C193.301 8.3457 194.326 9.48242 195.053 10.9707C195.791 12.4473 196.16 14.2344 196.16 16.332ZM181.5 16.332C181.5 17.8789 181.705 19.2207 182.115 20.3574C182.525 21.4941 183.158 22.373 184.014 22.9941C184.869 23.6152 185.971 23.9258 187.318 23.9258C188.654 23.9258 189.75 23.6152 190.605 22.9941C191.473 22.373 192.111 21.4941 192.521 20.3574C192.932 19.2207 193.137 17.8789 193.137 16.332C193.137 14.7969 192.932 13.4727 192.521 12.3594C192.111 11.2344 191.479 10.3672 190.623 9.75781C189.768 9.14844 188.66 8.84375 187.301 8.84375C185.297 8.84375 183.826 9.50586 182.889 10.8301C181.963 12.1543 181.5 13.9883 181.5 16.332Z" fill="#4285F4"/>
<path d="M33.7207 6.38281C35.3613 6.38281 36.7676 6.74609 37.9395 7.47266C39.1113 8.19922 40.0078 9.21875 40.6289 10.5312C41.25 11.832 41.5605 13.3555 41.5605 15.1016V16.9121H28.2539C28.2891 19.1738 28.8516 20.8965 29.9414 22.0801C31.0312 23.2637 32.5664 23.8555 34.5469 23.8555C35.7656 23.8555 36.8438 23.7441 37.7812 23.5215C38.7188 23.2988 39.6914 22.9707 40.6992 22.5371V25.1035C39.7266 25.5371 38.7598 25.8535 37.7988 26.0527C36.8496 26.252 35.7246 26.3516 34.4238 26.3516C32.5723 26.3516 30.9551 25.9766 29.5723 25.2266C28.2012 24.4648 27.1348 23.3516 26.373 21.8867C25.6113 20.4219 25.2305 18.6289 25.2305 16.5078C25.2305 14.4336 25.5762 12.6406 26.2676 11.1289C26.9707 9.60547 27.9551 8.43359 29.2207 7.61328C30.498 6.79297 31.998 6.38281 33.7207 6.38281ZM33.6855 8.77344C32.127 8.77344 30.8848 9.2832 29.959 10.3027C29.0332 11.3223 28.4824 12.7461 28.3066 14.5742H38.502C38.4902 13.4258 38.3086 12.418 37.957 11.5508C37.6172 10.6719 37.0957 9.99219 36.3926 9.51172C35.6895 9.01953 34.7871 8.77344 33.6855 8.77344ZM136.658 6.41797C138.955 6.41797 140.66 6.93359 141.773 7.96484C142.887 8.99609 143.443 10.6426 143.443 12.9043V26H141.316L140.754 23.1523H140.613C140.074 23.8555 139.512 24.4473 138.926 24.9277C138.34 25.3965 137.66 25.7539 136.887 26C136.125 26.2344 135.188 26.3516 134.074 26.3516C132.902 26.3516 131.859 26.1465 130.945 25.7363C130.043 25.3262 129.328 24.7051 128.801 23.873C128.285 23.041 128.027 21.9863 128.027 20.709C128.027 18.7871 128.789 17.3105 130.312 16.2793C131.836 15.248 134.156 14.6855 137.273 14.5918L140.596 14.4512V13.2734C140.596 11.6094 140.238 10.4434 139.523 9.77539C138.809 9.10742 137.801 8.77344 136.5 8.77344C135.492 8.77344 134.531 8.91992 133.617 9.21289C132.703 9.50586 131.836 9.85156 131.016 10.25L130.119 8.03516C130.986 7.58984 131.982 7.20898 133.107 6.89258C134.232 6.57617 135.416 6.41797 136.658 6.41797ZM140.561 16.5078L137.625 16.6309C135.223 16.7246 133.529 17.1172 132.545 17.8086C131.561 18.5 131.068 19.4785 131.068 20.7441C131.068 21.8457 131.402 22.6602 132.07 23.1875C132.738 23.7148 133.623 23.9785 134.725 23.9785C136.436 23.9785 137.836 23.5039 138.926 22.5547C140.016 21.6055 140.561 20.1816 140.561 18.2832V16.5078ZM212.895 6.73438H216.023L220.277 17.9141C220.523 18.5703 220.752 19.2031 220.963 19.8125C221.174 20.4102 221.361 20.9844 221.525 21.5352C221.689 22.0859 221.818 22.6191 221.912 23.1348H222.035C222.199 22.5488 222.434 21.7812 222.738 20.832C223.043 19.8711 223.371 18.8926 223.723 17.8965L227.748 6.73438H230.895L222.51 28.8301C222.064 30.0137 221.543 31.0449 220.945 31.9238C220.359 32.8027 219.645 33.4766 218.801 33.9453C217.957 34.4258 216.938 34.666 215.742 34.666C215.191 34.666 214.705 34.6309 214.283 34.5605C213.861 34.502 213.498 34.4316 213.193 34.3496V32.0117C213.451 32.0703 213.762 32.123 214.125 32.1699C214.5 32.2168 214.887 32.2402 215.285 32.2402C216.012 32.2402 216.639 32.0996 217.166 31.8184C217.705 31.5488 218.168 31.1504 218.555 30.623C218.941 30.0957 219.275 29.4688 219.557 28.7422L220.611 26.0352L212.895 6.73438Z" fill="#DB4437"/>
<path d="M96.457 16.332C96.457 17.9141 96.252 19.3262 95.8418 20.5684C95.4316 21.8105 94.8398 22.8594 94.0664 23.7148C93.293 24.5703 92.3555 25.2266 91.2539 25.6836C90.1641 26.1289 88.9277 26.3516 87.5449 26.3516C86.2559 26.3516 85.0723 26.1289 83.9941 25.6836C82.9277 25.2266 82.002 24.5703 81.2168 23.7148C80.4434 22.8594 79.8398 21.8105 79.4062 20.5684C78.9844 19.3262 78.7734 17.9141 78.7734 16.332C78.7734 14.2227 79.1309 12.4297 79.8457 10.9531C80.5605 9.46484 81.5801 8.33398 82.9043 7.56055C84.2402 6.77539 85.8281 6.38281 87.668 6.38281C89.4258 6.38281 90.9609 6.77539 92.2734 7.56055C93.5977 8.3457 94.623 9.48242 95.3496 10.9707C96.0879 12.4473 96.457 14.2344 96.457 16.332ZM81.7969 16.332C81.7969 17.8789 82.002 19.2207 82.4121 20.3574C82.8223 21.4941 83.4551 22.373 84.3105 22.9941C85.166 23.6152 86.2676 23.9258 87.6152 23.9258C88.9512 23.9258 90.0469 23.6152 90.9023 22.9941C91.7695 22.373 92.4082 21.4941 92.8184 20.3574C93.2285 19.2207 93.4336 17.8789 93.4336 16.332C93.4336 14.7969 93.2285 13.4727 92.8184 12.3594C92.4082 11.2344 91.7754 10.3672 90.9199 9.75781C90.0645 9.14844 88.957 8.84375 87.5977 8.84375C85.5938 8.84375 84.123 9.50586 83.1855 10.8301C82.2598 12.1543 81.7969 13.9883 81.7969 16.332ZM172.939 23.9609C173.42 23.9609 173.912 23.9199 174.416 23.8379C174.92 23.7559 175.33 23.6562 175.646 23.5391V25.8066C175.307 25.959 174.832 26.0879 174.223 26.1934C173.625 26.2988 173.039 26.3516 172.465 26.3516C171.445 26.3516 170.52 26.1758 169.688 25.8242C168.855 25.4609 168.188 24.8516 167.684 23.9961C167.191 23.1406 166.945 21.957 166.945 20.4453V9.01953H164.203V7.5957L166.963 6.45312L168.123 2.26953H169.881V6.73438H175.523V9.01953H169.881V20.3574C169.881 21.5645 170.156 22.4668 170.707 23.0645C171.27 23.6621 172.014 23.9609 172.939 23.9609Z" fill="#F4B400"/>
<path d="M157.172 26.3516C155.438 26.3516 153.908 25.9941 152.584 25.2793C151.26 24.5645 150.229 23.4746 149.49 22.0098C148.752 20.5449 148.383 18.6992 148.383 16.4727C148.383 14.1406 148.77 12.2363 149.543 10.7598C150.328 9.27148 151.406 8.16992 152.777 7.45508C154.148 6.74023 155.707 6.38281 157.453 6.38281C158.414 6.38281 159.34 6.48242 160.23 6.68164C161.133 6.86914 161.871 7.10938 162.445 7.40234L161.566 9.8457C160.98 9.61133 160.301 9.40039 159.527 9.21289C158.766 9.02539 158.051 8.93164 157.383 8.93164C156.047 8.93164 154.934 9.21875 154.043 9.79297C153.164 10.3672 152.502 11.2109 152.057 12.3242C151.623 13.4375 151.406 14.8086 151.406 16.4375C151.406 17.9961 151.617 19.3262 152.039 20.4277C152.473 21.5293 153.111 22.373 153.955 22.959C154.811 23.5332 155.877 23.8203 157.154 23.8203C158.174 23.8203 159.094 23.7148 159.914 23.5039C160.734 23.2812 161.479 23.0234 162.146 22.7305V25.332C161.502 25.6602 160.781 25.9121 159.984 26.0879C159.199 26.2637 158.262 26.3516 157.172 26.3516ZM209.959 6.38281C210.346 6.38281 210.75 6.40625 211.172 6.45312C211.594 6.48828 211.969 6.54102 212.297 6.61133L211.928 9.31836C211.611 9.23633 211.26 9.17188 210.873 9.125C210.486 9.07812 210.123 9.05469 209.783 9.05469C209.01 9.05469 208.277 9.21289 207.586 9.5293C206.906 9.83398 206.309 10.2793 205.793 10.8652C205.277 11.4395 204.873 12.1367 204.58 12.957C204.287 13.7656 204.141 14.668 204.141 15.6641V26H201.205V6.73438H203.631L203.947 10.2852H204.07C204.469 9.57031 204.949 8.91992 205.512 8.33398C206.074 7.73633 206.725 7.26172 207.463 6.91016C208.213 6.55859 209.045 6.38281 209.959 6.38281Z" fill="#0F9D58"/>
</svg>
